:SAMPLES-PER-SECOND 30
:FULLY-SPECIFIED
:DEGREES
17
root  -15.1633 40.6803 1.69428 -177.498 -71.8758 176.827
RightUpLeg  3.10412 -3.88153 -8.01572
RightLeg  2.65413 -2.8583 -1.70374
RightFoot  -3.05893 -0.802683 10.7658
RightToes  -3.13006e-008 1.75238e-005 3.56266e-009
Spine  -2.0738 1.73557 -3.33846
Spine1  6.55607 0.895424 4.01264
HEad  0.405736 -0.812842 6.42016
LeftShoulder1  1.95817 -4.81941 -16.8576
LeftArm  -2.08585 -5.26372 -46.4294
LeftForeArm  155.398 -80.8825 -114.411
LeftHand  -0.550004 -5.4773 6.17892
RightShoulder  2.39424 5.69738 19.6139
RightArm  -3.99725 5.34117 39.3389
RightForeArm  126.095 80.1575 109.065
RightHand  -1.03886 8.13464 -9.23173
LeftUpLeg  0.210908 1.86501 0.250256
LeftLeg  4.93503 23.8016 0.0053875
LeftFoot  -2.75455 0.0352598 -0.189626
LeftToes  4.78512e-008 1.47396e-008 1.32451e-009
18
root  -14.9092 40.6439 1.71214 -177.44 -72.2158 176.973
RightUpLeg  1.87292 -3.73362 -7.75478
RightLeg  4.08123 -3.3263 -1.81334
RightFoot  -3.46143 -0.755553 10.5995
RightToes  -3.13006e-008 1.75238e-005 3.56266e-009
Spine  -0.562881 1.48807 -2.80997
Spine1  6.45031 0.882518 2.87019
HEad  0.520101 -1.18431 6.72361
LeftShoulder1  2.07198 -5.17306 -17.2137
LeftArm  2.87633 -8.96052 -48.8351
LeftForeArm  123.195 -81.5653 -71.5606
LeftHand  -0.422222 -4.54772 5.22143
RightShoulder  2.55087 6.08611 20.2407
RightArm  -0.703936 8.92112 40.3097
RightForeArm  105.548 80.8554 82.648
RightHand  -0.74101 7.17147 -7.20262
LeftUpLeg  -1.17246 2.29352 0.637818
LeftLeg  6.51423 23.0505 0.148315
LeftFoot  -2.93167 0.0208825 -0.00685402
LeftToes  4.78512e-008 1.47396e-008 1.32451e-009
19
root  -14.5405 40.6082 1.73969 -178.055 -72.5185 177.606
RightUpLeg  0.780288 -3.36257 -7.27006
RightLeg  5.31602 -4.04298 -1.99264
RightFoot  -3.7216 -0.730252 10.5549
RightToes  -3.13006e-008 1.75238e-005 3.56266e-009
Spine  2.60846 1.4907 -2.82039
Spine1  5.04512 0.868618 2.92679
HEad  0.376448 -1.34506 6.37798
LeftShoulder1  2.35827 -5.96454 -18.3485
LeftArm  6.51955 -13.7624 -51.4004
LeftForeArm  95.6495 -76.2743 -33.1605
LeftHand  -0.32401 -4.16753 4.22247
RightShoulder  2.66577 6.41801 20.5233
RightArm  3.22993 13.1835 41.8304
RightForeArm  79.2951 78.6111 50.3817
RightHand  -0.564356 6.62711 -5.76153
LeftUpLeg  -2.51416 3.00535 1.13172
LeftLeg  8.06948 22.0597 0.411876
LeftFoot  -2.96706 0.00826882 0.147679
LeftToes  4.78512e-008 1.47396e-008 1.32451e-009
20
root  -14.0921 40.569 1.74239 -178.865 -73.0605 178.545
RightUpLeg  -0.345299 -2.99879 -6.63957
RightLeg  6.28493 -5.13834 -2.08719
RightFoot  -3.78751 -0.688158 10.009
RightToes  -3.13006e-008 1.75238e-005 3.56266e-009
Spine  5.68623 1.27157 -3.20166
Spine1  4.51331 0.491883 3.45057
HEad  -1.19349 -1.10043 5.25761
LeftShoulder1  2.5236 -6.36448 -19.0611
LeftArm  7.99527 -18.9612 -55.0567
LeftForeArm  89.9973 -67.8335 -18.1728
LeftHand  -0.191162 -5.22844 2.41251
RightShoulder  2.8558 6.95181 20.9987
RightArm  7.12543 18.6154 44.0234
RightForeArm  63.5373 73.1181 29.8534
RightHand  -0.303637 5.68838 -3.50928
LeftUpLeg  -4.0574 4.23691 1.63647
LeftLeg  9.47051 20.2836 0.771105
LeftFoot  -2.81771 0.00207678 0.199813
LeftToes  4.78512e-008 1.47396e-008 1.32451e-009
21
root  -13.5806 40.5246 1.72377 -179.628 -73.513 179.591
RightUpLeg  -1.7733 -2.63004 -5.9833
RightLeg  7.29744 -6.11561 -2.14702
RightFoot  -3.83466 -0.64939 9.4714
RightToes  -3.13006e-008 1.75238e-005 3.56266e-009
Spine  8.963 1.17117 -3.04904
Spine1  4.38073 0.368673 3.26936
HEad  -3.97508 -1.21034 4.97368
LeftShoulder1  2.73234 -7.04771 -19.4097
LeftArm  8.26503 -24.0147 -58.4907
LeftForeArm  89.8535 -58.9553 -11.4985
LeftHand  -0.158287 -6.21737 1.9154
RightShoulder  3.00462 7.40842 21.2378
RightArm  10.7909 24.0316 47.0025
RightForeArm  58.8836 66.1855 19.1918
RightHand  -0.162118 5.41281 -2.06666
LeftUpLeg  -5.75855 5.74902 2.09905
LeftLeg  10.6032 18.3582 1.03301
LeftFoot  -2.46084 -0.0125912 0.357049
LeftToes  4.78512e-008 1.47396e-008 1.32451e-009
22
root  -13.0419 40.4603 1.68584 -179.952 -73.8447 -179.466
RightUpLeg  -3.87892 -2.07581 -5.34007
RightLeg  8.77676 -7.08157 -2.32227
RightFoot  -3.86743 -0.6228 9.12115
RightToes  -3.13006e-008 1.75238e-005 3.56266e-009
Spine  12.3151 1.22025 -2.71431
Spine1  4.26146 0.474107 2.78602
HEad  -7.78438 -1.09132 4.75233
LeftShoulder1  2.80592 -7.2771 -19.5498
LeftArm  7.83657 -28.4171 -61.78
LeftForeArm  91.5412 -52.3068 -8.50716
LeftHand  -0.160148 -5.16218 2.06243
RightShoulder  3.09681 7.89297 20.8404
RightArm  14.3689 28.7136 50.4091
RightForeArm  56.3388 59.5166 13.8634
RightHand  -0.172077 4.77382 -2.25599
LeftUpLeg  -7.86972 7.36994 2.44726
LeftLeg  11.7195 16.4264 1.22222
LeftFoot  -2.05194 -0.0191206 0.385854
LeftToes  4.78512e-008 1.47396e-008 1.32451e-009
23
root  -12.4788 40.376 1.63124 179.445 -74.0265 -178.004
RightUpLeg  -6.36205 -1.48802 -4.57169
RightLeg  10.3736 -7.89845 -2.48175
RightFoot  -3.8354 -0.59505 8.72329
RightToes  -3.13006e-008 1.75238e-005 3.56266e-009
Spine  15.791 1.34207 -2.13838
Spine1  4.13695 0.735069 2.11566
HEad  -11.9476 -0.978026 4.68408
LeftShoulder1  2.74889 -7.14711 -19.3141
LeftArm  7.47877 -32.1068 -64.2677
LeftForeArm  92.7525 -48.7542 -7.27417
LeftHand  -0.240602 -5.71721 2.84582
RightShoulder  3.27016 8.53191 20.8402
RightArm  16.9206 32.8389 53.0329
RightForeArm  54.3773 54.4154 11.2087
RightHand  -0.154871 4.57966 -2.08394
LeftUpLeg  -10.3999 9.75612 2.72049
LeftLeg  13.0424 13.877 1.47473
LeftFoot  -1.72298 -0.0200561 0.348495
LeftToes  4.78512e-008 1.47396e-008 1.32451e-009
